{
	"asset":{
		"generator":"Khronos glTF Blender I/O v4.2.60",
		"version":"2.0"
	},
	"extensionsUsed":[
		"EXT_texture_webp"
	],
	"scene":0,
	"scenes":[
		{
			"name":"Scene",
			"nodes":[
				3
			]
		}
	],
	"nodes":[
		{
			"mesh":0,
			"name":"Stub",
			"rotation":[
				0.887010931968689,
				0,
				0,
				0.4617486298084259
			],
			"translation":[
				0.002499997615814209,
				0.3306226432323456,
				0.16684263944625854
			]
		},
		{
			"mesh":1,
			"name":"Tread",
			"rotation":[
				0.887010931968689,
				0,
				0,
				0.4617486298084259
			],
			"translation":[
				0.01750004291534424,
				0.19797782599925995,
				0.3649963438510895
			]
		},
		{
			"mesh":2,
			"name":"Tread Plate",
			"rotation":[
				0.887010931968689,
				0,
				0,
				0.4617486298084259
			],
			"translation":[
				-0.002499997615814209,
				0.2564826011657715,
				0.28144288063049316
			]
		},
		{
			"children":[
				0,
				1,
				2
			],
			"mesh":3,
			"name":"Central Stringer",
			"rotation":[
				-0.887010931968689,
				0,
				0,
				0.4617486298084259
			],
			"translation":[
				0,
				0.05999999865889549,
				0
			]
		}
	],
	"materials":[
		{
			"doubleSided":true,
			"name":"metalBeam",
			"pbrMetallicRoughness":{
				"baseColorFactor":[
					0.27,
					0.27,
					0.27,
					1
				],
				"metallicFactor":0.5,
				"roughnessFactor":0.8
			}
		},
		{
			"doubleSided":true,
			"name":"OakVeneer01",
			"pbrMetallicRoughness":{
				"baseColorTexture":{
					"index":0
				},
				"metallicFactor":0,
				"roughnessFactor":0.9928057193756104
			}
		}
	],
	"meshes":[
		{
			"name":"Cube.001",
			"primitives":[
				{
					"attributes":{
						"POSITION":0,
						"NORMAL":1,
						"TEXCOORD_0":2
					},
					"indices":3,
					"material":0
				}
			]
		},
		{
			"name":"Cube.003",
			"primitives":[
				{
					"attributes":{
						"POSITION":4,
						"NORMAL":5,
						"TEXCOORD_0":6
					},
					"indices":3,
					"material":1
				}
			]
		},
		{
			"name":"Cube.002",
			"primitives":[
				{
					"attributes":{
						"POSITION":7,
						"NORMAL":8,
						"TEXCOORD_0":9
					},
					"indices":3,
					"material":0
				}
			]
		},
		{
			"name":"Cube",
			"primitives":[
				{
					"attributes":{
						"POSITION":10,
						"NORMAL":11,
						"TEXCOORD_0":12
					},
					"indices":3,
					"material":0
				}
			]
		}
	],
	"textures":[
		{
			"extensions":{
				"EXT_texture_webp":{
					"source":0
				}
			},
			"sampler":0,
			"source":1
		}
	],
	"images":[
		{
			"mimeType":"image/webp",
			"name":"oak_veneer_01_diff_4k.jpg",
			"uri":"oak_veneer_01_diff_4k_jpg.webp"
		},
		{
			"mimeType":"image/jpeg",
			"name":"oak_veneer_01_diff_4k.jpg",
			"uri":"oak_veneer_01_diff_4k_jpg.jpg"
		}
	],
	"accessors":[
		{
			"bufferView":0,
			"componentType":5126,
			"count":24,
			"max":[
				0.07500000298023224,
				0.1363999992609024,
				0.07500000298023224
			],
			"min":[
				-0.07500000298023224,
				-0.1363999992609024,
				-0.07500000298023224
			],
			"type":"VEC3"
		},
		{
			"bufferView":1,
			"componentType":5126,
			"count":24,
			"type":"VEC3"
		},
		{
			"bufferView":2,
			"componentType":5126,
			"count":24,
			"type":"VEC2"
		},
		{
			"bufferView":3,
			"componentType":5123,
			"count":36,
			"type":"SCALAR"
		},
		{
			"bufferView":4,
			"componentType":5126,
			"count":24,
			"max":[
				0.800000011920929,
				0.07999999821186066,
				0.30000001192092896
			],
			"min":[
				-0.800000011920929,
				-0.07999999821186066,
				-0.30000001192092896
			],
			"type":"VEC3"
		},
		{
			"bufferView":5,
			"componentType":5126,
			"count":24,
			"type":"VEC3"
		},
		{
			"bufferView":6,
			"componentType":5126,
			"count":24,
			"type":"VEC2"
		},
		{
			"bufferView":7,
			"componentType":5126,
			"count":24,
			"max":[
				0.6000000238418579,
				0.012000000104308128,
				0.20000000298023224
			],
			"min":[
				-0.6000000238418579,
				-0.012000000104308128,
				-0.20000000298023224
			],
			"type":"VEC3"
		},
		{
			"bufferView":8,
			"componentType":5126,
			"count":24,
			"type":"VEC3"
		},
		{
			"bufferView":9,
			"componentType":5126,
			"count":24,
			"type":"VEC2"
		},
		{
			"bufferView":10,
			"componentType":5126,
			"count":24,
			"max":[
				0.15000000596046448,
				0.490000456571579,
				0.10000000149011612
			],
			"min":[
				-0.15000000596046448,
				-0.490000456571579,
				-0.10000000149011612
			],
			"type":"VEC3"
		},
		{
			"bufferView":11,
			"componentType":5126,
			"count":24,
			"type":"VEC3"
		},
		{
			"bufferView":12,
			"componentType":5126,
			"count":24,
			"type":"VEC2"
		}
	],
	"bufferViews":[
		{
			"buffer":0,
			"byteLength":288,
			"byteOffset":0,
			"target":34962
		},
		{
			"buffer":0,
			"byteLength":288,
			"byteOffset":288,
			"target":34962
		},
		{
			"buffer":0,
			"byteLength":192,
			"byteOffset":576,
			"target":34962
		},
		{
			"buffer":0,
			"byteLength":72,
			"byteOffset":768,
			"target":34963
		},
		{
			"buffer":0,
			"byteLength":288,
			"byteOffset":840,
			"target":34962
		},
		{
			"buffer":0,
			"byteLength":288,
			"byteOffset":1128,
			"target":34962
		},
		{
			"buffer":0,
			"byteLength":192,
			"byteOffset":1416,
			"target":34962
		},
		{
			"buffer":0,
			"byteLength":288,
			"byteOffset":1608,
			"target":34962
		},
		{
			"buffer":0,
			"byteLength":288,
			"byteOffset":1896,
			"target":34962
		},
		{
			"buffer":0,
			"byteLength":192,
			"byteOffset":2184,
			"target":34962
		},
		{
			"buffer":0,
			"byteLength":288,
			"byteOffset":2376,
			"target":34962
		},
		{
			"buffer":0,
			"byteLength":288,
			"byteOffset":2664,
			"target":34962
		},
		{
			"buffer":0,
			"byteLength":192,
			"byteOffset":2952,
			"target":34962
		}
	],
	"samplers":[
		{
			"magFilter":9729,
			"minFilter":9987
		}
	],
	"buffers":[
		{
			"byteLength":3144,
			"uri":"StairTreadTexture.bin"
		}
	]
}
